<svg width="85" height="86" viewBox="0 0 85 86" fill="none" xmlns="http://www.w3.org/2000/svg">
<g clip-path="url(#clip0_18_669)">
<rect y="0.412842" width="85" height="85" rx="4" fill="white" stroke="#E4E4E4" stroke-opacity="0.6"/>
<path d="M71.5 26.0999H13V76.9998H71.5V26.0999Z" fill="#FFCBD3"/>
<path d="M13 28.8999L10.3 44.7999H16.1001L18.5 28.8999H13Z" fill="#FF98A8"/>
<path d="M18.5001 28.8999L16.1001 44.7999H21.9001L24.0001 28.8999H18.5001Z" fill="#FF647C"/>
<path d="M24 28.8999L21.9 44.7999H27.7L29.5 28.8999H24Z" fill="#FF98A8"/>
<path d="M29.5001 28.8999L27.7001 44.7999H33.5001L35.1001 28.8999H29.5001Z" fill="#FF647C"/>
<path d="M35.1 28.8999L33.5 44.7999H39.3L40.1 28.8999H35.1Z" fill="#FF98A8"/>
<path d="M71.5 28.8999H66L68.4 44.7999H74.2L71.5 28.8999Z" fill="#FF98A8"/>
<path d="M60.4 28.8999L62.6 44.7999H68.4L66 28.8999H60.4Z" fill="#FF647C"/>
<path d="M54.9 28.8999L56.8 44.7999H62.6L60.4 28.8999H54.9Z" fill="#FF98A8"/>
<path d="M49.4 28.8999L50.9 44.7999H56.8L54.9 28.8999H49.4Z" fill="#FF647C"/>
<path d="M44.4 28.8999L45.1 44.7999H50.9L49.4 28.8999H44.4Z" fill="#FF98A8"/>
<path d="M43.9001 28.8999H42.2001H40.6001H40.1001L39.3 44.7999H42.2001H45.1001L44.4001 28.8999H43.9001Z" fill="#FF647C"/>
<path d="M13.2 47.6998C14.8 47.6998 16.1001 46.3998 16.1001 44.7998H10.3C10.3 46.3998 11.6 47.6998 13.2 47.6998Z" fill="#C34E46"/>
<path d="M19.0001 47.6998C20.6001 47.6998 21.9001 46.3998 21.9001 44.7998H16.1001C16.1001 46.3998 17.4001 47.6998 19.0001 47.6998Z" fill="#FF647C"/>
<path d="M24.8 47.6998C26.4 47.6998 27.7 46.3998 27.7 44.7998H21.9C21.9 46.3998 23.2 47.6998 24.8 47.6998Z" fill="#C34E46"/>
<path d="M30.6001 47.6998C32.2001 47.6998 33.5001 46.3998 33.5001 44.7998H27.7001C27.7001 46.3998 29.0001 47.6998 30.6001 47.6998Z" fill="#FF647C"/>
<path d="M36.4 47.6998C38 47.6998 39.3 46.3998 39.3 44.7998H33.5C33.5 46.3998 34.8 47.6998 36.4 47.6998Z" fill="#C34E46"/>
<path d="M42.2001 47.6998C43.8001 47.6998 45.1001 46.3998 45.1001 44.7998H39.3C39.3 46.3998 40.6001 47.6998 42.2001 47.6998Z" fill="#FF647C"/>
<path d="M48.0001 47.6998C49.6001 47.6998 50.9001 46.3998 50.9001 44.7998H45.1001C45.1001 46.3998 46.4001 47.6998 48.0001 47.6998Z" fill="#C34E46"/>
<path d="M53.9 47.6998C55.5 47.6998 56.8 46.3998 56.8 44.7998H51C50.9 46.3998 52.2 47.6998 53.9 47.6998Z" fill="#FF647C"/>
<path d="M59.7001 47.6998C61.3001 47.6998 62.6001 46.3998 62.6001 44.7998H56.8C56.8 46.3998 58.1001 47.6998 59.7001 47.6998Z" fill="#C34E46"/>
<path d="M65.5001 47.6998C67.1001 47.6998 68.4001 46.3998 68.4001 44.7998H62.6001C62.6001 46.3998 63.9001 47.6998 65.5001 47.6998Z" fill="#FF647C"/>
<path d="M71.3 47.6998C72.9 47.6998 74.2 46.3998 74.2 44.7998H68.4C68.4 46.3998 69.7 47.6998 71.3 47.6998Z" fill="#C34E46"/>
<path d="M71.5 23.7H13V26.8H71.5V23.7Z" fill="#3D4A80"/>
<path d="M71.5 26.0999H13V27.5999H71.5V26.0999Z" fill="#323C66"/>
<path d="M21.9 17H20.5V24.6H21.9V17Z" fill="#3D4A80"/>
<path d="M63.3 17H61.9V24.6H63.3V17Z" fill="#3D4A80"/>
<path d="M21.9001 20.5H21.2001V23.7H21.9001V20.5Z" fill="#323C66"/>
<path d="M63.3001 20.5H62.6001V23.7H63.3001V20.5Z" fill="#323C66"/>
<path d="M66.4 9.3999H17.5V21.1999H66.4V9.3999Z" fill="white"/>
<path d="M65.3 10.4999V20.0999H18.6V10.4999H65.3ZM66.4 9.3999H17.5V21.1999H66.4V9.3999Z" fill="#323C66"/>
<path d="M49.4 50.8999H17.5V72.1999H49.4V50.8999Z" fill="#FF647C"/>
<path d="M29.2383 48.1569L16.9009 73.1804L21.6545 75.5241L33.9918 50.5006L29.2383 48.1569Z" fill="#FF98A8"/>
<path d="M25.3678 47.1196L13.0276 72.1431L14.7317 72.9834L27.0719 47.9599L25.3678 47.1196Z" fill="#FF98A8"/>
<path d="M50.2001 73H16.8V50.2H50.2001V73ZM18.3 71.5H48.6001V51.7H18.3V71.5Z" fill="#323C66"/>
<path d="M67.5001 50.2H54.2001V77H67.5001V50.2Z" fill="#FF647C"/>
<path d="M59.9295 47.677L49.6029 64.0991L53.4122 66.4945L63.7388 50.0724L59.9295 47.677Z" fill="#FF98A8"/>
<path d="M66.1164 48.6899L52.1702 70.8682L53.9478 71.986L67.8941 49.8077L66.1164 48.6899Z" fill="#FF98A8"/>
<path d="M54.2001 50.2V77H67.5001V50.2H54.2001ZM66.0001 51.7V62.8H60.5001V61.8999H57.0001V62.8H55.7001V51.7H66.0001ZM55.7001 75.5V64.3999H57.0001V65.3H60.4001V64.3999H65.9001V75.5H55.7001Z" fill="#323C66"/>
<path d="M28.1417 12.6454H29.6224L30.8706 15.2282L32.1122 12.6454H33.5928V17.2998H32.3778V14.5377L31.3155 16.8417H30.4191L29.3568 14.5377V17.2998H28.1417V12.6454ZM37.7854 17.2998L37.5132 16.5562H35.6342L35.3554 17.2998H33.9345L35.9197 12.6454H37.3406L39.2594 17.2998H37.7854ZM36.0193 15.547H37.148L36.5903 14.0265L36.0193 15.547ZM42.3278 17.2998L41.7103 16.0449H40.98V17.2998H39.5989V12.6454H41.7701C42.3942 12.6454 42.8767 12.7893 43.2175 13.077C43.5628 13.3647 43.7354 13.772 43.7354 14.2987C43.7354 14.6395 43.6668 14.9361 43.5296 15.1884C43.3968 15.4363 43.2042 15.6333 42.9519 15.7793L43.8948 17.2998H42.3278ZM40.98 14.9826H41.7701C41.9781 14.9826 42.1375 14.9273 42.2481 14.8166C42.3632 14.7059 42.4208 14.5466 42.4208 14.3385C42.4208 14.1349 42.3632 13.98 42.2481 13.8738C42.1375 13.7631 41.9781 13.7078 41.7701 13.7078H40.98V14.9826ZM49.0511 17.2998H47.3979L46.309 15.5868L45.7911 16.1578V17.2998H44.4101V12.6454H45.7911V14.5112L47.3514 12.6454H48.9449L47.2518 14.5311L49.0511 17.2998ZM49.4611 12.6454H53.2656V13.7078H50.8421V14.4381H53.0398V15.5005H50.8421V16.2375H53.332V17.2998H49.4611V12.6454ZM53.6415 12.6454H57.7315V13.7476H56.377V17.2998H54.9893V13.7476H53.6415V12.6454Z" fill="#2F2E2E"/>
</g>
<defs>
<clipPath id="clip0_18_669">
<rect width="85" height="85" fill="white" transform="translate(0 0.412842)"/>
</clipPath>
</defs>
</svg>
