<svg width="85" height="86" viewBox="0 0 85 86" fill="none" xmlns="http://www.w3.org/2000/svg">
<g clip-path="url(#clip0_18_764)">
<rect y="0.412842" width="85" height="85" rx="4" fill="white" stroke="#E4E4E4" stroke-opacity="0.6"/>
<path d="M41.3163 68.4279C32.5163 68.8279 31.6163 61.8279 31.6163 58.7279C34.4163 57.8279 37.5163 57.3279 41.1163 57.3279C44.5163 57.3279 47.6163 57.8279 50.4163 58.6279C50.7163 61.5279 50.2163 68.1279 41.3163 68.4279Z" fill="#FF98A8"/>
<path d="M31.6163 58.7279C31.6163 61.8279 32.5163 68.8279 41.3163 68.4279C50.1163 68.0279 50.6163 61.5279 50.4163 58.6279C70.6163 64.6279 75.6163 89.3279 75.6163 89.3279H9.31628C9.41628 89.3279 12.2163 64.8279 31.6163 58.7279Z" fill="#FF647C"/>
<path d="M59.6163 17.7278C59.6163 17.7278 66.0163 24.3278 59.6163 31.0278C53.2163 37.7278 21.7163 30.7278 21.7163 30.7278C21.7163 30.7278 17.0163 21.5278 24.5163 15.0278C32.0163 8.5278 49.5163 10.5278 49.7163 10.5278C49.9163 10.5278 59.6163 17.7278 59.6163 17.7278Z" fill="#323C66"/>
<path d="M61.4163 38.6278C64.2882 38.6278 66.6163 36.2997 66.6163 33.4278C66.6163 30.5559 64.2882 28.2278 61.4163 28.2278C58.5444 28.2278 56.2163 30.5559 56.2163 33.4278C56.2163 36.2997 58.5444 38.6278 61.4163 38.6278Z" fill="#FBDDC3"/>
<path d="M22.8163 38.6278C25.6882 38.6278 28.0163 36.2997 28.0163 33.4278C28.0163 30.5559 25.6882 28.2278 22.8163 28.2278C19.9444 28.2278 17.6163 30.5559 17.6163 33.4278C17.6163 36.2997 19.9444 38.6278 22.8163 38.6278Z" fill="#FBDDC3"/>
<path d="M46.8163 54.6277L47.4163 62.0277C47.4163 62.0277 47.1163 65.7277 41.1163 66.4277C35.1163 67.1277 34.4163 60.8277 34.4163 60.8277L35.4163 47.9277C39.0163 52.8277 43.8163 54.2277 46.8163 54.6277Z" fill="#FBDDC3"/>
<path d="M60.0163 28.5279C60.2163 31.3279 60.0163 32.1279 59.7163 34.9279C59.1163 40.4279 56.5163 45.1279 51.5163 47.8279C46.5163 50.4279 39.8163 51.4279 34.5163 49.2279C30.4163 47.5279 27.2163 44.5279 25.6163 40.5279C23.8163 35.9279 23.7163 30.0279 24.0163 25.0279C24.9163 6.52789 40.0163 6.8279 40.0163 6.8279C40.0163 6.8279 60.1163 5.1279 60.0163 28.5279Z" fill="#FBDDC3"/>
<path d="M52.9163 21.4278C53.7163 22.7278 54.9163 23.7278 56.4163 24.0278C58.5163 24.5278 61.2163 24.5278 62.3163 21.8278C64.2163 17.0278 61.4163 13.6278 61.4163 13.6278C61.4163 13.6278 67.7163 8.42784 63.0163 4.42784C58.3163 0.32784 55.2163 5.12784 55.2163 5.12784C55.2163 5.12784 54.6163 0.82784 50.3163 0.42784C45.9163 0.12784 44.4163 4.42784 44.4163 4.42784C44.4163 4.42784 41.9163 0.227839 36.8163 1.22784C31.7163 2.22784 32.6163 7.52784 32.6163 7.52784C32.6163 7.52784 30.9163 6.32784 28.2163 6.92784C23.9163 7.82784 21.8163 12.7278 22.8163 17.6278C23.4163 20.8278 22.7163 23.8278 22.1163 25.5278C21.7163 26.6278 22.3163 27.5278 22.8163 27.4278C24.0163 27.2278 24.1163 15.9278 28.5163 16.2278C28.7163 18.7278 29.8163 22.7278 33.2163 21.8278C34.0163 21.6278 34.7163 21.0278 35.2163 20.4278C36.1163 19.3278 36.5163 18.0278 37.5163 17.0278C38.1163 16.3278 38.9163 15.8278 39.7163 15.4278C41.7163 14.5278 43.9163 14.6278 45.8163 15.4278C49.3163 16.7278 51.6163 19.1278 52.9163 21.4278Z" fill="#323C66"/>
<path d="M80.9521 85.2131C80.9521 85.2131 63.9162 57.2278 58.0162 57.0278L56.5162 65.6278C56.5162 65.6278 69.5521 84.5131 68.6521 88.6131C67.7521 92.7131 80.9521 85.2131 80.9521 85.2131Z" fill="#323C66"/>
<path d="M38.4162 47.0278C38.4162 47.0278 6.93564 67.8982 2.53564 83.9982L5.33565 87.7982L13.1356 88.9982C13.1356 88.9982 35.4162 56.9278 41.6162 56.4278C47.9162 55.9278 38.4162 47.0278 38.4162 47.0278Z" fill="#323C66"/>
<path d="M49.7162 61.828C50.1162 62.128 52.9162 62.928 54.3162 63.028C53.4162 62.928 52.8162 62.928 51.9162 62.828C51.0162 62.728 49.4162 62.228 49.3162 63.028C49.2162 63.828 50.0162 64.828 51.4162 65.528C53.0162 66.428 54.4162 66.628 55.1162 66.728C55.8162 66.828 57.0162 66.628 57.5162 65.328C58.4162 62.928 59.0162 60.328 59.0162 57.828C59.1162 55.028 58.0162 54.828 56.8162 54.128C55.3162 53.228 52.0162 54.228 51.7162 55.528C51.5162 56.828 54.0162 55.728 55.7162 56.828C54.4162 56.028 50.6162 56.628 50.0162 58.128C49.7162 58.928 50.5162 59.028 50.9162 59.028C52.2162 59.128 53.6162 58.828 54.8162 59.528C53.7162 59.328 50.8162 59.228 49.8162 59.828C48.8162 60.528 49.2162 61.528 49.7162 61.828Z" fill="#F6BB86"/>
<path d="M45.8072 46.6375C45.3108 46.5777 42.486 47.2849 41.2235 47.8983C42.0529 47.5349 42.5726 47.2349 43.402 46.8715C44.2314 46.5081 45.867 46.1411 45.5536 45.3983C45.2402 44.6555 44.0474 44.1894 42.485 44.2832C40.6493 44.3038 39.3369 44.8306 38.6807 45.094C38.0245 45.3574 37.0853 46.1306 37.3022 47.5064C37.7228 50.0349 38.5032 52.5865 39.7532 54.7516C41.0666 57.2265 42.1192 56.8497 43.5085 56.8559C45.2575 56.8853 47.6154 54.3693 47.2252 53.0935C46.7484 51.8676 45.1333 54.0703 43.1111 53.9676C44.6369 54.0105 47.6278 51.5908 47.3974 49.9918C47.2572 49.149 46.5144 49.4624 46.168 49.6624C44.9922 50.2258 43.9297 51.1856 42.5405 51.1794C43.5931 50.8026 46.1546 49.4392 46.7206 48.4196C47.2367 47.3133 46.3903 46.6473 45.8072 46.6375Z" fill="#F6BB86"/>
<path d="M31.5163 30.0278C31.5163 29.9278 31.6163 29.7278 31.8163 29.7278C31.9163 29.6278 32.1163 29.6278 32.1163 29.5278C32.2163 29.3278 32.0163 29.2278 31.9163 29.0278C31.7163 28.6278 31.8163 28.1278 32.1163 27.9278C32.5163 27.6278 33.0163 27.7278 33.5163 27.6278C34.1163 27.4278 34.7162 27.2278 35.2162 27.0278C35.7162 26.8278 36.2163 26.5278 36.6163 26.1278C36.8163 25.9278 37.1163 25.5278 37.4163 25.4278C38.0163 25.3278 37.6162 26.1278 37.7162 26.3278C37.8162 26.5278 37.8163 26.7278 37.8163 26.8278C37.8163 27.0278 37.7163 27.2278 37.6163 27.4278C36.9163 28.5278 35.9163 29.3278 34.8163 29.9278C34.1163 30.2278 33.5163 30.5278 32.8163 30.7278C32.5163 30.8278 32.3163 30.8278 32.0163 30.8278C31.7163 30.7278 31.5163 30.6278 31.4163 30.3278C31.4163 30.2278 31.5163 30.1278 31.5163 30.0278Z" fill="#323C66"/>
<path d="M54.5163 29.9277C54.5163 29.9277 54.5163 30.0277 54.5163 29.9277C54.3163 30.2277 54.1163 30.3277 53.9163 30.4277C53.1163 30.6277 52.2163 30.2277 51.5163 29.8277C50.6163 29.3277 49.8163 28.5277 49.2163 27.7277C49.0163 27.4277 48.8163 27.1277 48.8163 26.8277C48.8163 26.6277 48.9163 26.4277 48.9163 26.2277C48.9163 26.1277 48.8163 26.0277 48.8163 25.8277C48.8163 25.1277 49.4163 25.7277 49.6163 25.9277C49.9163 26.2277 50.2163 26.4277 50.6163 26.6277C51.1163 26.9277 51.6163 27.1277 52.2163 27.2277C52.8163 27.3277 53.5163 27.2277 53.9163 27.6277C54.1163 27.8277 54.2163 28.0277 54.2163 28.3277C54.2163 28.5277 53.9163 28.8277 54.0163 29.0277C54.1163 29.2277 54.3163 29.2277 54.5163 29.4277C54.6163 29.5277 54.6163 29.7277 54.5163 29.9277Z" fill="#323C66"/>
<path d="M32.6163 34.1278C32.9163 33.9278 33.3163 33.4278 33.6163 33.3278C34.2163 33.0278 34.5162 32.8278 35.2162 32.6278C35.8162 32.4278 36.7163 32.3278 37.3163 32.6278C37.9163 32.9278 39.0163 33.8278 38.8163 34.4278C38.7163 34.6278 38.4163 34.5278 38.4163 34.3278C38.5163 33.7278 37.3163 33.4278 36.8163 33.3278C36.3163 33.2278 35.5163 33.3278 35.0163 33.5278C34.5163 33.7278 33.9163 34.2278 33.5163 34.4278C33.1163 34.7278 32.6163 35.1278 32.1163 35.1278C32.0163 35.1278 31.9163 35.0278 31.9163 34.8278C32.1163 34.5278 32.3163 34.3278 32.6163 34.1278Z" fill="#323C66"/>
<path d="M47.5163 34.3278C47.8163 34.1278 48.2163 33.6278 48.5163 33.5278C49.1163 33.2278 49.4163 33.0278 50.1163 32.8278C50.7163 32.6278 51.6163 32.5278 52.2163 32.8278C52.8163 33.1278 53.9163 34.0278 53.7163 34.6278C53.6163 34.8278 53.3163 34.7278 53.3163 34.5278C53.4163 33.9278 52.2163 33.6278 51.7163 33.5278C51.2163 33.4278 50.4163 33.5278 49.9163 33.7278C49.4163 33.9278 48.8163 34.4278 48.4163 34.6278C48.0163 34.9278 47.5163 35.3278 47.0163 35.3278C46.9163 35.3278 46.8163 35.2278 46.8163 35.0278C46.9163 34.7278 47.2163 34.5278 47.5163 34.3278Z" fill="#323C66"/>
</g>
<defs>
<clipPath id="clip0_18_764">
<rect width="85" height="85" fill="white" transform="translate(0 0.412842)"/>
</clipPath>
</defs>
</svg>
