<svg width="85" height="86" viewBox="0 0 85 86" fill="none" xmlns="http://www.w3.org/2000/svg">
<g clip-path="url(#clip0_18_649)">
<rect y="0.412842" width="85" height="85" rx="4" fill="white" stroke="#E4E4E4" stroke-opacity="0.6"/>
<path d="M33.9296 66.4688C30.8305 67.3543 30.5649 69.0367 29.0596 71.0732C27.5543 73.0212 26.3147 71.6931 27.3772 68.6825C27.9085 67.0887 30.0336 64.6979 31.716 63.6354C27.9085 65.1407 27.4657 69.3909 25.7834 69.9221C25.075 70.1878 24.1896 68.9481 24.8094 67.1772C26.049 63.3697 28.3512 60.8019 29.8565 59.6508C26.6688 60.8019 26.2261 64.5208 24.8979 65.4948C24.0125 66.2032 23.7468 64.9636 24.0125 63.4583C24.4552 60.979 25.6948 58.1455 28.6169 55.7548C31.5389 53.3641 37.8256 54.0724 45.352 54.8693C47.5657 55.135 48.8939 54.7808 50.4877 57.1715C52.0815 59.6508 52.17 63.6354 51.1075 65.1407C49.6908 67.0887 45.1749 68.2398 40.6591 68.3283C36.1433 68.4169 34.0182 70.0107 32.2472 71.6931C30.4763 73.3754 29.4138 72.6671 29.8565 71.516C30.1221 70.2763 31.1847 68.8596 33.9296 66.4688Z" fill="#FBDDC3"/>
<path d="M48.9885 52.1362C52.9731 48.5058 98.1315 45.3181 105.215 68.34L90.2183 77.2182C91.5465 74.6503 50.3167 72.9444 47.7489 69.7568C45.181 66.5691 45.0039 55.7665 48.9885 52.1362Z" fill="#FF647C"/>
<path d="M-0.774288 21.6092C-0.774288 21.6092 15.8723 14.3485 26.7635 20.9894C31.8991 24.0885 33.7586 29.7555 34.5555 33.1202C34.6441 33.4744 35.7066 32.5004 36.0608 34.0057C36.1493 34.2713 36.1493 34.714 35.8837 35.1567C34.467 37.1048 29.2428 38.0788 26.852 37.636C26.6749 37.636 26.2322 37.1048 26.1437 36.8391C25.5238 34.9797 26.6749 35.5995 26.5864 35.2453C25.5238 32.5004 24.3727 28.1616 20.3882 26.0365C15.3411 23.3802 6.48647 25.948 -2.10248 29.1356C-10.8685 32.2347 -0.774288 21.6092 -0.774288 21.6092Z" fill="#323C66"/>
<path d="M30.9251 40.2925C30.9251 40.2925 26.4979 47.9074 31.2793 48.4387C35.9723 49.0585 30.9251 40.2925 30.9251 40.2925Z" fill="#323C66"/>
<path d="M34.3784 37.3704C34.3784 37.3704 35.7066 44.454 37.8317 43.1258C39.9568 41.8862 34.3784 37.3704 34.3784 37.3704Z" fill="#323C66"/>
<path d="M36.8577 49.5898C36.8577 49.5898 34.467 57.2933 37.8317 56.585C42.5246 55.6995 36.8577 49.5898 36.8577 49.5898Z" fill="#323C66"/>
</g>
<defs>
<clipPath id="clip0_18_649">
<rect width="85" height="85" fill="white" transform="translate(0 0.412842)"/>
</clipPath>
</defs>
</svg>
