<?xml version="1.0" encoding="UTF-8"?>
<svg xmlns="http://www.w3.org/2000/svg" width="11px" height="16px" viewBox="0 0 11 16"
    version="1.1">
    <defs>
        <linearGradient id="linear0" gradientUnits="userSpaceOnUse" x1="5.47487" y1="-6.66483"
            x2="-7.74321" y2="1.74667">
            <stop offset="0"
                style="stop-color:rgb(40.000001%,40.000001%,40.000001%);stop-opacity:1;" />
            <stop offset="1"
                style="stop-color:rgb(8.235294%,8.235294%,13.333334%);stop-opacity:1;" />
        </linearGradient>
    </defs>
    <g id="surface1">
        <path style=" stroke:none;fill-rule:evenodd;fill:url(#linear0);"
            d="M 5.476562 15.222656 C 8.039062 15.222656 10.117188 13.109375 10.117188 10.5 C 10.117188 9.257812 9.320312 7.824219 8.371094 6.117188 C 7.539062 4.613281 6.585938 2.898438 5.953125 0.917969 C 5.835938 0.542969 5.222656 0.53125 5.089844 0.902344 C 4.414062 2.835938 3.476562 4.511719 2.652344 5.976562 C 1.660156 7.75 0.832031 9.222656 0.832031 10.5 C 0.832031 13.109375 2.910156 15.222656 5.476562 15.222656 Z M 2.726562 9.003906 C 2.699219 8.84375 2.496094 8.800781 2.421875 8.949219 C 0.902344 12 3.671875 14.753906 6.464844 13.8125 C 6.613281 13.761719 6.601562 13.550781 6.449219 13.503906 C 3.921875 12.714844 3.234375 12.117188 2.726562 9.003906 Z M 2.726562 9.003906 " />
    </g>
</svg>
