<?xml version="1.0" encoding="UTF-8"?>
<svg xmlns="http://www.w3.org/2000/svg" width="15px" height="24px" viewBox="0 0 15 24"
    version="1.1">
    <defs>
        <linearGradient id="linear0" gradientUnits="userSpaceOnUse" x1="7.42594" y1="-11.1215"
            x2="-13.7161" y2="2.33257">
            <stop offset="0" style="stop-color:rgb(100%,93.725491%,78.823531%);stop-opacity:1;" />
            <stop offset="1" style="stop-color:rgb(100%,81.176472%,36.078432%);stop-opacity:1;" />
        </linearGradient>
    </defs>
    <g id="surface1">
        <path style=" stroke:none;fill-rule:evenodd;fill:url(#linear0);"
            d="M 7.425781 23.886719 C 11.527344 23.886719 14.851562 20.503906 14.851562 16.335938 C 14.851562 14.347656 13.578125 12.054688 12.058594 9.320312 C 10.722656 6.917969 9.203125 4.175781 8.191406 1.007812 C 8 0.40625 7.019531 0.390625 6.8125 0.984375 C 5.730469 4.078125 4.230469 6.753906 2.910156 9.101562 C 1.324219 11.933594 0 14.289062 0 16.335938 C 0 20.503906 3.324219 23.886719 7.425781 23.886719 Z M 3.027344 13.941406 C 2.984375 13.683594 2.660156 13.617188 2.542969 13.851562 C 0.113281 18.730469 4.542969 23.136719 9.007812 21.628906 C 9.25 21.546875 9.230469 21.214844 8.984375 21.140625 C 4.945312 19.875 3.839844 18.921875 3.027344 13.941406 Z M 3.027344 13.941406 " />
    </g>
</svg>
