<?xml version="1.0" encoding="UTF-8"?>
<svg xmlns="http://www.w3.org/2000/svg" xmlns:xlink="http://www.w3.org/1999/xlink" width="18px" height="15px" viewBox="0 0 18 15" version="1.1">
<defs>
<linearGradient id="linear0" gradientUnits="userSpaceOnUse" x1="9.10519" y1="-6.23417" x2="-4.43345" y2="10.4148" >
<stop offset="0" style="stop-color:rgb(40.000001%,40.000001%,40.000001%);stop-opacity:1;"/>
<stop offset="1" style="stop-color:rgb(8.235294%,8.235294%,13.333334%);stop-opacity:1;"/>
</linearGradient>
</defs>
<g id="surface1">
<path style=" stroke:none;fill-rule:nonzero;fill:url(#linear0);" d="M 0.601562 3.78125 L 2.90625 6.597656 C 3.480469 7.300781 4.621094 6.871094 4.585938 5.964844 L 4.429688 1.714844 L 5.792969 4.246094 C 6.421875 5.414062 8.160156 5.164062 8.433594 3.867188 L 9.105469 0.679688 L 9.777344 3.867188 C 10.050781 5.164062 11.789062 5.414062 12.417969 4.246094 L 13.78125 1.714844 L 13.625 5.964844 C 13.589844 6.871094 14.730469 7.300781 15.304688 6.597656 L 17.609375 3.78125 L 14.992188 13.433594 C 14.992188 13.433594 12.929688 14.507812 9.105469 14.507812 C 5.277344 14.507812 3.21875 13.433594 3.21875 13.433594 Z M 0.601562 3.78125 "/>
</g>
</svg>
