<?xml version="1.0" encoding="UTF-8"?>
<svg xmlns="http://www.w3.org/2000/svg" width="29px" height="23px" viewBox="0 0 29 23"
    version="1.1">
    <defs>
        <linearGradient id="linear0" gradientUnits="userSpaceOnUse" x1="14.4497" y1="-10.4328"
            x2="-7.20507" y2="16.197001">
            <stop offset="0" style="stop-color:rgb(100%,93.725491%,78.823531%);stop-opacity:1;" />
            <stop offset="1" style="stop-color:rgb(100%,81.176472%,36.078432%);stop-opacity:1;" />
        </linearGradient>
    </defs>
    <g id="surface1">
        <path style=" stroke:none;fill-rule:nonzero;fill:url(#linear0);"
            d="M 0.847656 5.589844 L 4.535156 10.09375 C 5.453125 11.21875 7.273438 10.53125 7.222656 9.078125 L 6.96875 2.28125 L 9.152344 6.332031 C 10.15625 8.195312 12.941406 7.796875 13.375 5.722656 L 14.449219 0.625 L 15.523438 5.722656 C 15.960938 7.796875 18.746094 8.195312 19.75 6.332031 L 21.929688 2.28125 L 21.679688 9.078125 C 21.625 10.53125 23.445312 11.21875 24.367188 10.09375 L 28.050781 5.589844 L 23.867188 21.027344 C 23.867188 21.027344 20.570312 22.746094 14.449219 22.746094 C 8.328125 22.746094 5.035156 21.027344 5.035156 21.027344 Z M 0.847656 5.589844 " />
    </g>
</svg>
