<?xml version="1.0" encoding="UTF-8"?>
<svg xmlns="http://www.w3.org/2000/svg" xmlns:xlink="http://www.w3.org/1999/xlink" width="26px" height="28px" viewBox="0 0 26 28" version="1.1">
<defs>
<linearGradient id="linear0" gradientUnits="userSpaceOnUse" x1="12.6882" y1="-12.319" x2="-13.7963" y2="12.8074" >
<stop offset="0" style="stop-color:rgb(100%,93.725491%,78.823531%);stop-opacity:1;"/>
<stop offset="1" style="stop-color:rgb(100%,81.176472%,36.078432%);stop-opacity:1;"/>
</linearGradient>
</defs>
<g id="surface1">
<path style=" stroke:none;fill-rule:nonzero;fill:url(#linear0);" d="M 12.6875 0.941406 L 13.042969 2.390625 C 13.726562 5.203125 17.128906 6.308594 19.332031 4.433594 L 20.464844 3.472656 L 19.890625 4.871094 C 18.800781 7.542969 20.902344 10.433594 23.78125 10.214844 L 25.269531 10.105469 L 23.988281 10.898438 C 21.535156 12.417969 21.535156 15.984375 23.988281 17.503906 L 25.269531 18.300781 L 23.78125 18.1875 C 20.902344 17.972656 18.800781 20.859375 19.890625 23.535156 L 20.464844 24.929688 L 19.332031 23.96875 C 17.128906 22.097656 13.726562 23.203125 13.042969 26.011719 L 12.6875 27.464844 L 12.335938 26.011719 C 11.652344 23.203125 8.246094 22.097656 6.042969 23.96875 L 4.914062 24.929688 L 5.484375 23.535156 C 6.578125 20.859375 4.476562 17.972656 1.597656 18.1875 L 0.109375 18.300781 L 1.390625 17.503906 C 3.84375 15.984375 3.84375 12.417969 1.390625 10.898438 L 0.109375 10.105469 L 1.597656 10.214844 C 4.476562 10.433594 6.578125 7.542969 5.484375 4.871094 L 4.914062 3.472656 L 6.042969 4.433594 C 8.246094 6.308594 11.652344 5.203125 12.335938 2.390625 Z M 12.6875 0.941406 "/>
</g>
</svg>
