<?xml version="1.0" encoding="UTF-8"?>
<svg xmlns="http://www.w3.org/2000/svg" width="17px" height="17px" viewBox="0 0 17 17"
    version="1.1">
    <defs>
        <linearGradient id="linear0" gradientUnits="userSpaceOnUse" x1="8.7559" y1="-8.0386"
            x2="-7.80226" y2="7.67042">
            <stop offset="0"
                style="stop-color:rgb(40.000001%,40.000001%,40.000001%);stop-opacity:1;" />
            <stop offset="1"
                style="stop-color:rgb(8.235294%,8.235294%,13.333334%);stop-opacity:1;" />
        </linearGradient>
    </defs>
    <g id="surface1">
        <path style=" stroke:none;fill-rule:nonzero;fill:url(#linear0);"
            d="M 8.757812 0.25 L 8.976562 1.160156 C 9.40625 2.914062 11.53125 3.605469 12.910156 2.4375 L 13.617188 1.835938 L 13.261719 2.707031 C 12.578125 4.378906 13.890625 6.1875 15.691406 6.050781 L 16.621094 5.980469 L 15.820312 6.476562 C 14.285156 7.425781 14.285156 9.65625 15.820312 10.609375 L 16.621094 11.105469 L 15.691406 11.035156 C 13.890625 10.898438 12.578125 12.707031 13.261719 14.375 L 13.617188 15.25 L 12.910156 14.648438 C 11.53125 13.480469 9.40625 14.167969 8.976562 15.925781 L 8.757812 16.832031 L 8.535156 15.925781 C 8.109375 14.167969 5.980469 13.480469 4.601562 14.648438 L 3.894531 15.25 L 4.25 14.375 C 4.933594 12.707031 3.621094 10.898438 1.820312 11.035156 L 0.890625 11.105469 L 1.691406 10.609375 C 3.226562 9.65625 3.226562 7.425781 1.691406 6.476562 L 0.890625 5.980469 L 1.820312 6.050781 C 3.621094 6.1875 4.933594 4.378906 4.25 2.707031 L 3.894531 1.835938 L 4.601562 2.4375 C 5.980469 3.605469 8.109375 2.914062 8.535156 1.160156 Z M 8.757812 0.25 " />
    </g>
</svg>
