<svg width="85" height="85" viewBox="0 0 85 85" fill="none" xmlns="http://www.w3.org/2000/svg">
<g clip-path="url(#clip0_204_1675)">
<path d="M40.8758 66.1334C32.0758 66.5334 31.1758 59.5334 31.1758 56.4334C33.9758 55.5334 37.0758 55.0334 40.6758 55.0334C44.0758 55.0334 47.1758 55.5334 49.9758 56.3334C50.2758 59.2334 49.6758 65.7334 40.8758 66.1334Z" fill="#FFCBD3"/>
<path d="M31.1758 56.3336C31.1758 59.4336 32.0758 66.4336 40.8758 66.0336C49.6758 65.6336 50.1758 59.1336 49.9758 56.2336C70.1758 62.2336 75.1758 86.9336 75.1758 86.9336H8.97583C8.97583 86.9336 11.7758 62.5336 31.1758 56.3336Z" fill="#FF647C"/>
<path d="M59.1758 15.3335C59.1758 15.3335 65.5758 21.9335 59.1758 28.6335C52.7758 35.3335 21.2758 28.3335 21.2758 28.3335C21.2758 28.3335 16.5758 19.1335 24.0758 12.6335C31.6758 6.13351 49.1758 8.13351 49.3758 8.13351C49.4758 8.13351 59.1758 15.3335 59.1758 15.3335Z" fill="#323C66"/>
<path d="M60.9759 36.2335C63.8478 36.2335 66.1759 33.9054 66.1759 31.0335C66.1759 28.1616 63.8478 25.8335 60.9759 25.8335C58.104 25.8335 55.7759 28.1616 55.7759 31.0335C55.7759 33.9054 58.104 36.2335 60.9759 36.2335Z" fill="#FBDDC3"/>
<path d="M22.3758 36.2335C25.2477 36.2335 27.5758 33.9054 27.5758 31.0335C27.5758 28.1616 25.2477 25.8335 22.3758 25.8335C19.5039 25.8335 17.1758 28.1616 17.1758 31.0335C17.1758 33.9054 19.5039 36.2335 22.3758 36.2335Z" fill="#FBDDC3"/>
<path d="M59.5759 26.1336C59.7759 28.9336 59.5758 29.7336 59.2758 32.5336C58.6758 38.0336 56.0759 42.7336 51.0759 45.4336C46.0759 48.0336 39.3759 49.0336 34.0759 46.8336C29.9759 45.1336 26.7758 42.1336 25.1758 38.1336C23.3758 33.5336 23.2758 27.6336 23.5758 22.6336C24.4758 4.13361 39.5759 4.43361 39.5759 4.43361C39.5759 4.43361 59.6759 2.73361 59.5759 26.1336Z" fill="#FBDDC3"/>
<path d="M46.3758 52.2334L46.9758 59.6334C46.9758 59.6334 46.6758 63.3334 40.6758 64.0334C34.6758 64.7334 33.9758 58.4334 33.9758 58.4334L34.9758 45.5334C38.5758 50.5334 43.3758 51.8334 46.3758 52.2334Z" fill="#FBDDC3"/>
<path d="M34.9758 48.8336L35.8758 37.2336L44.8758 38.4336L46.3758 55.3336C43.3758 55.1336 38.5758 53.7336 34.9758 48.8336Z" fill="#F6BB86"/>
<path d="M48.8759 25.4335C48.8759 26.4335 49.2759 27.2335 49.7759 27.2335C50.2759 27.2335 50.6759 26.4335 50.6759 25.4335C50.6759 24.4335 50.2759 23.6335 49.7759 23.6335C49.3759 23.6335 48.8759 24.4335 48.8759 25.4335Z" fill="#323C66"/>
<path d="M32.7759 27.5336C33.2729 27.5336 33.6759 26.7277 33.6759 25.7336C33.6759 24.7395 33.2729 23.9336 32.7759 23.9336C32.2788 23.9336 31.8759 24.7395 31.8759 25.7336C31.8759 26.7277 32.2788 27.5336 32.7759 27.5336Z" fill="#323C66"/>
<path d="M52.4759 19.0336C53.2759 20.3336 54.4759 21.3336 55.9759 21.6336C58.0759 22.1336 60.7759 22.1336 61.8759 19.4336C63.7759 14.6336 60.9759 11.2336 60.9759 11.2336C60.9759 11.2336 67.2759 6.03355 62.5759 2.03355C57.8759 -2.06645 54.7759 2.73355 54.7759 2.73355C54.7759 2.73355 54.1759 -1.56645 49.8759 -1.96645C45.4759 -2.26645 43.9759 2.03355 43.9759 2.03355C43.9759 2.03355 41.4759 -2.16645 36.3759 -1.16645C31.2759 -0.166448 32.1759 5.13355 32.1759 5.13355C32.1759 5.13355 30.4759 3.93355 27.7759 4.53355C23.4759 5.43355 21.3759 10.3335 22.3759 15.2335C22.9759 18.4335 22.2759 21.4336 21.6759 23.1336C21.2759 24.2336 21.8759 25.1336 22.3759 25.0336C23.5759 24.8336 23.6759 13.5335 28.0759 13.8335C28.2759 16.3335 29.3759 20.3336 32.7759 19.4336C33.5759 19.2336 34.2759 18.6336 34.7759 18.0336C35.6759 16.9336 36.0759 15.6336 37.0759 14.6336C37.6759 13.9336 38.4759 13.4336 39.2759 13.0336C41.2759 12.1336 43.4759 12.2336 45.3759 13.0336C48.8759 14.3336 51.1759 16.7336 52.4759 19.0336Z" fill="#323C66"/>
<path d="M28.6759 43.8334C33.6759 48.1334 43.3759 52.4334 54.0759 43.8334C51.3759 40.6334 52.5759 36.4334 55.7759 31.7334C47.7759 29.1334 35.5759 29.1334 27.5759 31.7334C30.9759 36.1334 32.1759 40.3334 28.6759 43.8334Z" fill="#FF647C"/>
<path d="M28.5759 32.1335C25.9759 30.5335 24.0759 28.3335 22.7759 26.1335Z" fill="#EB7B55"/>
<path d="M54.3759 32.5335C56.6759 30.9335 58.2759 28.7335 59.6759 26.1335Z" fill="#EB7B55"/>
<path d="M46.2759 22.6336C46.4759 22.0336 46.8759 21.6336 47.3759 21.2336C47.8759 20.8336 48.4759 20.6336 49.0759 20.5336C49.6759 20.4336 50.3759 20.6336 50.9759 20.9336C51.2759 21.0336 51.4759 21.3336 51.6759 21.5336C51.8759 21.7336 52.0759 22.0336 52.1759 22.2336C51.5759 22.0336 51.0759 21.9336 50.5759 21.8336C50.0759 21.7336 49.6759 21.7336 49.1759 21.7336C48.2759 21.7336 47.3759 22.1336 46.2759 22.6336Z" fill="#323C66"/>
<path d="M36.0758 22.1334C35.0758 21.3334 34.0758 21.0334 33.0758 21.1334C32.5758 21.1334 32.0758 21.2334 31.4758 21.3334C31.1758 21.4334 30.8758 21.4334 30.5758 21.5334C30.2758 21.6334 29.9758 21.6334 29.6758 21.7334C29.8758 21.4334 30.0758 21.2334 30.2758 21.0334C30.4758 20.8334 30.7758 20.6334 31.0758 20.5334C31.6758 20.2334 32.2758 20.0334 32.9758 20.0334C33.6758 20.0334 34.3758 20.2334 34.9758 20.6334C35.5758 20.9334 35.9758 21.5334 36.0758 22.1334Z" fill="#323C66"/>
</g>
<defs>
<clipPath id="clip0_204_1675">
<rect width="85" height="85" fill="white"/>
</clipPath>
</defs>
</svg>
